<svg xmlns="http://www.w3.org/2000/svg" viewBox="0 0 144 24"><defs><style>.cls-1{fill:#ef3939;}.cls-2{fill:#fff;}</style></defs><path class="cls-1" d="M12.1,24c5.26,0,8.18,0,10.09-1.91S24.1,17.29,24.1,12s0-8.18-1.91-10.09S17.36,0,12.1,0,3.92,0,2,1.94.1,6.77.1,12,.1,20.21,2,22.12,6.84,24,12.1,24Z"/><path class="cls-2" d="M19,8.6q-2.79,4.82-5.56,9.64a1.85,1.85,0,0,1-1.53,1,1.76,1.76,0,0,1-1.76-.93q-1.75-3-3.49-6L4.56,8.58A1.86,1.86,0,0,1,6.08,5.76a1.77,1.77,0,0,1,1.72,1L9.35,9.4c.38.65.74,1.3,1.12,1.94a2.93,2.93,0,0,0,2.46,1.51,3,3,0,0,0,3.15-2.65,2.11,2.11,0,0,0,0-.31,3.16,3.16,0,0,0-.32-1.39,1.87,1.87,0,1,1,3.49-1.16A2,2,0,0,1,19,8.6Z"/><polygon points="43.83 20.99 51.42 4.71 47.38 4.71 43.83 12.76 40.27 4.71 36.23 4.71 43.83 20.99"/><rect x="56.88" y="4.71" width="3.63" height="16.1"/><polygon points="73.57 20.99 81.17 4.71 77.13 4.71 73.57 12.76 70.01 4.71 65.98 4.71 73.57 20.99"/><path d="M88.72,15.36,90.24,12l1.52,3.35ZM82.3,20.8h3.81l1.16-2.49h5.94l1.16,2.49h3.8L90.24,4.53Z"/><polygon points="103.5 20.8 113.38 20.8 113.38 17.2 107.12 17.2 107.12 4.71 103.5 4.71 103.5 20.8"/><path d="M119.7,20.8h5.64a8,8,0,1,0,0-16.09H119.7Zm3.62-3.31V8h2a4.54,4.54,0,0,1,4.54,4.74,4.54,4.54,0,0,1-4.54,4.73Z"/><rect x="139.14" y="4.71" width="3.63" height="16.1"/></svg>
